<?xml version="1.0" encoding="UTF-8" standalone="no"?>
<svg width="100px" height="100px" viewBox="0 0 100 100" version="1.1" xmlns="http://www.w3.org/2000/svg" xmlns:xlink="http://www.w3.org/1999/xlink">
    <!-- Generator: Sketch 3.8.1 (29687) - http://www.bohemiancoding.com/sketch -->
    <title>Page 1</title>
    <desc>Created with Sketch.</desc>
    <defs></defs>
    <g id="Page-1" stroke="none" stroke-width="1" fill="none" fill-rule="evenodd">
        <g transform="translate(7.000000, 14.000000)" fill="#29323D">
            <path d="M53.3398532,1.4508383 C51.4039383,0.000731914894 49.8047043,-0.0962468085 49.3692149,0.0492212766 C48.9346404,0.194689362 49.3692149,1.11324255 49.1267681,1.4508383 C48.8852362,1.79117872 48.2091298,1.69328511 48.0627468,1.98513617 C47.9181936,2.27515745 48.0627468,2.71064681 47.5787681,3.2422 C47.0957043,3.77466809 32.0923638,19.5520085 30.4007255,21.6800511 C28.9981936,22.8410511 23.3853213,25.4054979 22.7549596,26.1300936 C22.1264277,26.857434 1.17078936,56.9867106 0.495597872,57.972966 C-1.0999766,60.3004553 1.30985319,65.2573489 5.5229383,68.283817 C9.95285319,71.4703915 15.7743213,72.8573702 17.8822362,70.3944766 C18.6608106,69.4887319 39.7820447,39.4674128 40.2504702,38.6284553 C40.7161511,37.7913277 41.2184277,31.6404979 41.8332362,29.9250723 C43.2595553,27.6103915 52.988534,8.13505106 53.3233851,7.49737021 C53.6609809,6.86243404 54.1193426,6.85054043 54.3416617,6.61632766 C54.5676404,6.38028511 54.2428532,5.77554043 54.4807255,5.43428511 C54.7185979,5.09028511 55.749683,4.9338383 55.7112574,4.47730638 C55.5877468,3.0985617 53.3398532,1.4508383 53.3398532,1.4508383" id="Fill-1"></path>
            <path d="M38.0216064,3.3230766 C37.5339681,2.7924383 37.6757766,2.35420426 37.5275638,2.06326809 C37.3811809,1.77324681 36.7023298,1.87571489 36.4571383,1.53720426 C36.2128617,1.19869362 36.4086489,0.171268085 35.9649255,0.0559914894 C34.6209468,-0.293497872 32.3108404,1.28286383 32.3108404,1.28286383 C30.2916702,2.62409787 29.6622234,4.10165106 29.6530745,4.56275745 C29.6448404,5.02111915 30.6585426,4.91773617 30.8991596,5.26082128 C31.1379468,5.60299149 30.8195638,6.21139574 31.0455426,6.44560851 C31.2706064,6.68165106 31.7307979,6.68897021 32.0720532,7.32573617 C32.1992234,7.56269362 33.6575638,10.4308851 35.5102234,14.0502043 C37.6007553,11.8142043 39.8825,9.39248085 41.8412872,7.31750213 C39.7223936,5.10254468 38.1725638,3.48684255 38.0216064,3.3230766" id="Fill-4"></path>
            <path d="M85.574666,57.9209085 C84.9790702,56.8815894 63.6904106,26.8502064 63.0573043,26.1256106 C62.4214532,25.4001 56.7765596,22.8631 55.3630489,21.7085043 C54.8067936,21.0186745 52.8361128,18.8952064 50.4125596,16.3261851 C47.5901128,21.9143553 44.9122191,27.171334 43.6176447,29.5528021 C43.6588149,29.622334 43.7009,29.6927809 43.7338362,29.7458447 C44.3587085,31.4621851 44.8984957,37.6276532 45.3760702,38.4656957 C45.8499851,39.3028234 67.2960064,69.2143553 67.9986447,70.1841426 C69.664666,72.4750362 75.1586021,71.8593128 79.4348149,68.8941426 C83.9287723,65.7761851 87.1949426,60.7387809 85.574666,57.9209085" id="Fill-6"></path>
        </g>
    </g>
</svg>